# xmcd
#
# Track frame offsets: 
#        150
#        12281
#        25900
#        42400
#        57814
#        77155
#        94024
#        106493
#        127951
#        147003
#        161197
#        174318
#        186586
#
# Disc length: 2735 seconds
#
# Revision: 0
# Processed by: cddbd v1.5.1PL0 Copyright (c) Steve Scherf et al.
# Submitted via: ExactAudioCopy v0.95a5
#
DISCID=a90aad0d
DTITLE=99 Tales - Full Moon-Empty Heart
DYEAR=2004
DGENRE=Country
TTITLE0=New Jersey Theme Park
TTITLE1=Which Way The Smoke Blows
TTITLE2=This Only Road
TTITLE3=Old Flowers
TTITLE4=The Last Miners Rag
TTITLE5=Kara's Lament
TTITLE6=Into The Winter's Hold
TTITLE7=Full Moon-Empty Heart
TTITLE8=Gazebo Tree
TTITLE9=Bad Painted Smile
TTITLE10=500 More Miles
TTITLE11=Along The Railroad
TTITLE12=Northern Melody
EXTD=
EXTT0=
EXTT1=
EXTT2=
EXTT3=
EXTT4=
EXTT5=
EXTT6=
EXTT7=
EXTT8=
EXTT9=
EXTT10=
EXTT11=
EXTT12=
PLAYORDER=
